<?xml version="1.0" encoding="utf-8"?>
<!-- Generator: Adobe Illustrator 27.4.1, SVG Export Plug-In . SVG Version: 6.00 Build 0)  -->
<svg version="1.1" id="Layer_1" xmlns="http://www.w3.org/2000/svg" xmlns:xlink="http://www.w3.org/1999/xlink" x="0px" y="0px"
	 viewBox="0 0 150 40" style="enable-background:new 0 0 150 40;" xml:space="preserve">
<style type="text/css">
	.st0{fill:#FFFFFF;}
	.st1{fill:none;stroke:#FFFFFF;stroke-miterlimit:10;}
</style>
<g>
	<path class="st0" d="M45.23,22.77v-4.59H61.1v4.59h-5.73v4.53h-4.59v-4.53H45.23z M45.92,4.68c0.48-0.44,1.02-0.66,1.62-0.66h13.62
		v11.67h-15.9V6.3C45.26,5.7,45.48,5.16,45.92,4.68z M45.5,36.09V26.7c0-0.66,0.22-1.21,0.66-1.65c0.44-0.44,0.98-0.66,1.62-0.66
		h2.28v5.94c0,0.78,0.39,1.17,1.17,1.17h9.87v4.59H45.5z M49.82,9.99c0,0.76,0.38,1.14,1.14,1.14h5.58V8.58h-5.58
		c-0.76,0-1.14,0.38-1.14,1.14V9.99z"/>
	<path class="st0" d="M77.21,8.67h-1.18c0.66,1.06,1,2.22,1,3.48c0,0.9-0.18,1.75-0.53,2.55c-0.35,0.8-0.82,1.5-1.41,2.08
		C74.5,17.38,73.8,17.85,73,18.2c-0.8,0.35-1.65,0.52-2.56,0.52c-0.9,0-1.75-0.17-2.56-0.52c-0.8-0.35-1.5-0.82-2.11-1.41
		c-0.6-0.59-1.08-1.28-1.43-2.08c-0.35-0.8-0.53-1.65-0.53-2.55c0-0.64,0.09-1.25,0.27-1.83c0.18-0.58,0.43-1.13,0.75-1.65h-1.24
		V4.05h4.74V0.96h4.62v3.09h4.23V8.67z M70.44,14.1c0.52,0,0.96-0.2,1.34-0.58c0.38-0.39,0.57-0.84,0.57-1.37
		c0-0.54-0.19-1-0.57-1.38s-0.82-0.57-1.34-0.57c-0.54,0-0.99,0.19-1.37,0.57c-0.38,0.38-0.56,0.84-0.56,1.38
		c0,0.52,0.19,0.98,0.56,1.37C69.45,13.91,69.91,14.1,70.44,14.1z M84.77,30.39c0,0.62-0.22,1.17-0.66,1.65
		c-0.48,0.44-1.03,0.66-1.65,0.66h-2.28v-6.75c0-0.76-0.38-1.14-1.14-1.14h-5.85v-4.59h11.58V30.39z M88.76,13.77H85.4v4.95h-4.59
		V4.05h4.59v5.13h3.36V13.77z"/>
	<path class="st0" d="M104.57,18.24v4.59H91.1v-4.59h2.7v-4.53h4.59v4.53H104.57z M104.48,4.08v9.39c0,0.66-0.22,1.21-0.66,1.65
		c-0.44,0.44-0.98,0.66-1.62,0.66h-2.28V9.84c0-0.78-0.39-1.17-1.17-1.17h-7.47V4.08H104.48z M104.9,24.27
		c1.04,0,2.02,0.2,2.93,0.58c0.91,0.39,1.71,0.93,2.38,1.61s1.21,1.47,1.61,2.38c0.39,0.91,0.58,1.88,0.58,2.89
		c0,1.02-0.2,1.98-0.58,2.9c-0.39,0.91-0.93,1.7-1.61,2.37s-1.47,1.2-2.38,1.59s-1.88,0.59-2.93,0.59c-1.02,0-1.98-0.2-2.88-0.59
		s-1.69-0.92-2.37-1.59s-1.21-1.46-1.6-2.37c-0.39-0.91-0.58-1.88-0.58-2.9c0-1.02,0.19-1.98,0.58-2.89
		c0.39-0.91,0.92-1.71,1.6-2.38s1.47-1.21,2.37-1.61C102.92,24.47,103.88,24.27,104.9,24.27z M104.93,34.5
		c0.38,0,0.74-0.07,1.08-0.21c0.34-0.14,0.63-0.34,0.88-0.59c0.25-0.25,0.45-0.54,0.6-0.88s0.22-0.7,0.22-1.08
		c0-0.38-0.07-0.74-0.22-1.08s-0.35-0.63-0.6-0.88c-0.25-0.25-0.54-0.45-0.88-0.6c-0.34-0.15-0.7-0.22-1.08-0.22
		s-0.74,0.07-1.08,0.22c-0.34,0.15-0.63,0.35-0.88,0.6c-0.25,0.25-0.45,0.54-0.6,0.88c-0.15,0.34-0.22,0.7-0.22,1.08
		c0,0.38,0.08,0.74,0.22,1.08c0.15,0.34,0.35,0.63,0.6,0.88c0.25,0.25,0.54,0.45,0.88,0.59C104.19,34.43,104.55,34.5,104.93,34.5z
		 M115.04,13.77h-3.36v9.15h-4.59V4.05h4.59v5.13h3.36V13.77z"/>
	<path class="st0" d="M135.95,15.9l-4.32,2.85l-1.98-3.3l-3.15-5.19l-3.15,5.19l-2.01,3.3l-2.22-1.17c-0.32-0.18-0.6-0.35-0.85-0.51
		c-0.25-0.16-0.43-0.39-0.53-0.69c-0.22-0.58-0.13-1.2,0.27-1.86l0.6-0.99l2.52-4.17l0.42-0.66V8.67h-3.63V4.08h17.73v4.59h-4.23
		l0.03,0.03l0.39,0.66l2.55,4.17L135.95,15.9z M138.17,32.97c-0.9,0-1.75-0.17-2.53-0.51c-0.79-0.34-1.49-0.8-2.08-1.39
		c-0.6-0.59-1.07-1.29-1.41-2.09c-0.34-0.8-0.51-1.65-0.51-2.55c0-0.9,0.17-1.75,0.51-2.54c0.34-0.79,0.81-1.49,1.41-2.08
		c0.6-0.6,1.29-1.07,2.08-1.41c0.79-0.34,1.63-0.51,2.53-0.51c0.9,0,1.75,0.17,2.55,0.51c0.8,0.34,1.5,0.81,2.1,1.41
		c0.6,0.6,1.07,1.29,1.41,2.08c0.34,0.79,0.51,1.63,0.51,2.54c0,0.9-0.17,1.75-0.51,2.55c-0.34,0.8-0.81,1.5-1.41,2.09
		s-1.3,1.05-2.1,1.39C139.92,32.8,139.07,32.97,138.17,32.97z M138.17,24.51c-0.52,0-0.97,0.19-1.35,0.57
		c-0.38,0.38-0.57,0.83-0.57,1.35c0,0.54,0.19,1,0.57,1.38c0.38,0.38,0.83,0.57,1.35,0.57c0.54,0,1-0.19,1.38-0.57
		c0.38-0.38,0.57-0.84,0.57-1.38c0-0.52-0.19-0.97-0.57-1.35C139.17,24.7,138.71,24.51,138.17,24.51z M147.14,13.77h-3.36v4.95
		h-4.59V4.05h4.59v5.13h3.36V13.77z"/>
</g>
<path class="st1" d="M38.95,32.63c-4.08,0-8.1,0-12.11,0c-1.94,0-3.89,0-5.83,0c-1.3,0-1.86,0.46-1.89,1.49
	c-0.02,1.02,0.58,1.57,1.83,1.57c5.61,0.01,11.22,0,16.83,0c0.38,0,0.75,0,1.19,0c0,0.51,0,0.94,0,1.53c-0.29,0-0.59,0-0.89,0
	c-5.42,0-10.84,0-16.26,0c-3.07,0-4.22-1.15-4.22-4.22c0.02-5.8,0.03-11.6,0.06-17.4c0.01-2.2,1.18-3.57,3.34-3.6
	c5.96-0.07,11.92-0.02,17.95-0.02C38.95,18.84,38.95,25.68,38.95,32.63z M28.34,15.79c-1.4,0-2.8-0.01-4.2,0
	c-2.23,0.02-1.9-0.3-1.98,2c-0.03,0.86,0.29,1.09,1.1,1.08c3.02-0.04,6.05,0.01,9.07-0.02c2.43-0.02,2.04,0.4,2.11-2.13
	c0.02-0.71-0.25-0.95-0.95-0.94C31.78,15.81,30.06,15.79,28.34,15.79z"/>
<path class="st0" d="M16.02,25.75c0,0.54,0,0.98,0,1.52c-1.59,0-3.15,0-4.7,0c-1.34,0-2.68,0.04-4.02-0.02
	c-2.27-0.1-3.48-1.41-3.48-3.68c0-5.9-0.01-11.79,0-17.69c0-2.51,1.34-3.85,3.84-3.85c5.58-0.01,11.16,0,16.74,0c0.25,0,0.5,0,0.8,0
	c0,2.8,0,5.53,0,8.41c-1.23,0-2.49-0.02-3.75,0.01c-0.7,0.02-1.41,0.03-2.08,0.2c-2.09,0.55-3.29,2.17-3.3,4.35
	c-0.01,2.52,0,5.03,0,7.69c-0.38,0-0.72,0-1.05,0c-2.65,0-5.29-0.01-7.94,0c-1.17,0-1.73,0.52-1.73,1.56c0,0.94,0.6,1.5,1.7,1.51
	C10,25.76,12.96,25.75,16.02,25.75z M14.55,5.84c-1.4,0-2.81-0.01-4.21,0C8.15,5.86,8.46,5.56,8.39,7.76
	C8.36,8.64,8.64,8.93,9.52,8.92c3.03-0.04,6.06-0.01,9.09-0.02c2.4-0.01,2,0.2,2.06-2.13c0.02-0.71-0.25-0.96-0.95-0.95
	C18,5.86,16.28,5.84,14.55,5.84z"/>
</svg>
